<svg width="510" height="415" viewBox="0 0 510 415" fill="none" xmlns="http://www.w3.org/2000/svg">
<path fill-rule="evenodd" clip-rule="evenodd" d="M293.468 0.493528C329.521 0.443476 362.887 21.3422 391.537 43.2243C417.879 63.3448 421.716 71.3563 444.671 83.7925C460.289 92.2543 472.838 90.0479 486.726 101.123C520.177 127.798 507.821 172.477 504.415 209.241C500.994 246.164 491.564 284.871 467.117 312.755C443.077 340.174 403.398 345.729 370.659 361.795C342.472 375.627 316.538 392.792 286.359 401.459C254.967 410.474 222.662 417.312 190.211 413.615C156.517 409.778 122.801 399.79 95.4707 379.717C68.1793 359.672 51.1618 329.256 34.9095 299.552C18.8731 270.244 0.3503 245.224 0.700697 206.513C0.904247 184.025 3.27337 170.522 13.0381 150.265C30.7886 113.44 64.9922 108.266 93.9036 83.7925C122.021 59.9912 161.523 57.6874 195.521 43.4965C228.79 29.6098 257.416 0.54358 293.468 0.493528Z" fill="#DBDCC4"/>
</svg>
